<svg width="40" height="40" viewBox="0 0 40 40" fill="none" xmlns="http://www.w3.org/2000/svg">
<path d="M7.70801 36.6667C7.23579 36.6667 6.82606 36.4931 6.47884 36.1459C6.13162 35.7986 5.95801 35.3889 5.95801 34.9167V30.5417C5.95801 28.0417 6.73579 25.8334 8.29134 23.9167C9.8469 22 11.8469 20.7778 14.2913 20.25C13.1802 21.0278 12.3191 22.007 11.708 23.1875C11.0969 24.3681 10.7913 25.6389 10.7913 27V34.9167C10.7913 35.2223 10.833 35.5278 10.9163 35.8334C10.9997 36.1389 11.1386 36.4167 11.333 36.6667H7.70801ZM13.833 36.6667C13.3608 36.6667 12.9511 36.4931 12.6038 36.1459C12.2566 35.7986 12.083 35.3889 12.083 34.9167V27C12.083 25.0556 12.7705 23.4028 14.1455 22.0417C15.5205 20.6806 17.1802 20 19.1247 20H26.9997C28.9441 20 30.5969 20.6806 31.958 22.0417C33.3191 23.4028 33.9997 25.0556 33.9997 27V29.6667C33.9997 31.6112 33.3191 33.2639 31.958 34.625C30.5969 35.9861 28.9441 36.6667 26.9997 36.6667H13.833ZM19.9997 16.5C18.1663 16.5 16.6108 15.8612 15.333 14.5834C14.0552 13.3056 13.4163 11.75 13.4163 9.91671C13.4163 8.08337 14.0552 6.52782 15.333 5.25004C16.6108 3.97226 18.1663 3.33337 19.9997 3.33337C21.833 3.33337 23.3886 3.97226 24.6663 5.25004C25.9441 6.52782 26.583 8.08337 26.583 9.91671C26.583 11.75 25.9441 13.3056 24.6663 14.5834C23.3886 15.8612 21.833 16.5 19.9997 16.5Z" fill="#FFF6F6"/>
</svg>
