<svg width="40" height="40" viewBox="0 0 40 40" fill="none" xmlns="http://www.w3.org/2000/svg">
<path d="M10 35L11.6667 16.75L10.3333 8.875C10.1944 8.15278 10.3681 7.32639 10.8542 6.39583C11.3403 5.46528 12.4167 5 14.0833 5C15.7222 5 17.1597 5.52778 18.3958 6.58333C19.6319 7.63889 20.3889 8.97222 20.6667 10.5833L21.4167 15H28.3333C28.8056 15 29.2014 15.1597 29.5208 15.4792C29.8403 15.7986 30 16.1944 30 16.6667C30 17.1389 29.8403 17.5347 29.5208 17.8542C29.2014 18.1736 28.8056 18.3333 28.3333 18.3333H26.8333L28.3333 35H25L24.7083 31.6667H13.625L13.3333 35H10ZM13.9167 28.3333H24.375L24.0833 25H14.25L13.9167 28.3333ZM14.5417 21.6667H23.7917L23.4583 18.3333H14.8333L14.5417 21.6667ZM14.75 15H18.0417L17.375 11.125C17.2361 10.3194 16.8542 9.65278 16.2292 9.125C15.6042 8.59722 14.8889 8.33333 14.0833 8.33333H13.625L14.75 15Z" fill="white"/>
</svg>
