<svg width="40" height="50" viewBox="0 0 40 50" fill="none" xmlns="http://www.w3.org/2000/svg">
  <g clip-path="url(#clip0_1_2)">
    <path d="M0 47.5V45.8333C0 44.9493 0.35119 44.1014 0.976311 43.4763C1.60143 42.8512 2.44928 42.5 3.33333 42.5H36.6667C37.5507 42.5 38.3986 42.8512 39.0237 43.4763C39.6488 44.1014 40 44.9493 40 45.8333V47.5C40 48.163 39.7366 48.7989 39.2678 49.2678C38.7989 49.7366 38.163 50 37.5 50H2.5C1.83696 50 1.20107 49.7366 0.732233 49.2678C0.263392 48.7989 0 48.163 0 47.5ZM3.33333 40.8333V20.8333C3.33333 20.1696 3.59674 19.5337 4.06558 19.0649C4.53442 18.5961 5.17029 18.3333 5.83333 18.3333H34.1667C34.8297 18.3333 35.4656 18.5961 35.9344 19.0649C36.4033 19.5337 36.6667 20.1696 36.6667 20.8333V40.8333H3.33333ZM10 0H13.3333V10H10V0ZM26.6667 0H30V10H26.6667V0ZM20 5C22.7614 5 25 7.23858 25 10C25 12.7614 22.7614 15 20 15C17.2386 15 15 12.7614 15 10C15 7.23858 17.2386 5 20 5Z" fill="#C89A0C"/>
  </g>
  <defs>
    <clipPath id="clip0_1_2">
      <rect width="40" height="50" fill="white"/>
    </clipPath>
  </defs>
</svg>
