<svg width="31" height="31" viewBox="0 0 31 31" fill="none" xmlns="http://www.w3.org/2000/svg">
<path d="M11.7917 30.4167L7.66667 22.75L0 18.625L2.95833 15.7083L9 16.75L13.25 12.5L0.0416667 6.875L3.54167 3.29167L19.5833 6.125L24.75 0.958333C25.3889 0.319444 26.1806 0 27.125 0C28.0694 0 28.8611 0.319444 29.5 0.958333C30.1389 1.59722 30.4583 2.38194 30.4583 3.3125C30.4583 4.24306 30.1389 5.02778 29.5 5.66667L24.2917 10.875L27.125 26.875L23.5833 30.4167L17.9167 17.2083L13.6667 21.4583L14.75 27.4583L11.7917 30.4167Z" fill="white"/>
</svg>
